<?xml version="1.0" encoding="UTF-8" standalone="no"?>
<svg
   xmlns:dc="http://purl.org/dc/elements/1.1/"
   xmlns:cc="http://creativecommons.org/ns#"
   xmlns:rdf="http://www.w3.org/1999/02/22-rdf-syntax-ns#"
   xmlns:svg="http://www.w3.org/2000/svg"
   xmlns="http://www.w3.org/2000/svg"
   viewBox="0 0 34.668667 34.666668"
   height="34.666668"
   width="34.668667"
   xml:space="preserve"
   id="svg2"
   version="1.1"><metadata
     id="metadata8"><rdf:RDF><cc:Work
         rdf:about=""><dc:format>image/svg+xml</dc:format><dc:type
           rdf:resource="http://purl.org/dc/dcmitype/StillImage" /></cc:Work></rdf:RDF></metadata><defs
     id="defs6"><clipPath
       id="clipPath18"
       clipPathUnits="userSpaceOnUse"><path
         id="path16"
         d="M 0,26 H 26.001 V 0 H 0 Z" /></clipPath></defs><g
     transform="matrix(1.3333333,0,0,-1.3333333,0,34.666667)"
     id="g10"><g
       id="g12"><g
         clip-path="url(#clipPath18)"
         id="g14"><g
           transform="translate(0,2.166)"
           id="g20"><path
             id="path22"
             style="fill:#4d5459;fill-opacity:1;fill-rule:nonzero;stroke:none"
             d="m 0,0 c 0,-1.195 0.971,-2.166 2.167,-2.166 h 21.666 c 1.198,0 2.168,0.971 2.168,2.166 v 21.668 c 0,1.196 -0.97,2.166 -2.168,2.166 H 2.167 C 0.971,23.834 0,22.864 0,21.668 Z" /></g><path
           id="path24"
           style="fill:#4d5459;fill-opacity:1;fill-rule:nonzero;stroke:#ffffff;stroke-width:1;stroke-linecap:butt;stroke-linejoin:round;stroke-miterlimit:10;stroke-dasharray:none;stroke-opacity:1"
           d="M 20.499,4.5 H 5.5 v 17 h 14.999 z" /><path
           id="path26"
           style="fill:#85ed08;fill-opacity:1;fill-rule:nonzero;stroke:none"
           d="M 7.919,16.001 H 17.92 v -2 H 7.919 Z" /><path
           id="path28"
           style="fill:#85ed08;fill-opacity:1;fill-rule:nonzero;stroke:none"
           d="m 7.919,18.876 h 4 v -1 h -4 z" /><path
           id="path30"
           style="fill:#85ed08;fill-opacity:1;fill-rule:nonzero;stroke:none"
           d="m 13.919,18.876 h 4 v -1 h -4 z" /><path
           id="path32"
           style="fill:#85ed08;fill-opacity:1;fill-rule:nonzero;stroke:none"
           d="M 7.917,10 H 17.918 V 8 H 7.917 Z" /><path
           id="path34"
           style="fill:#85ed08;fill-opacity:1;fill-rule:nonzero;stroke:none"
           d="M 7.919,13.001 H 17.92 V 11 H 7.919 Z" /></g></g></g></svg>