<?xml version="1.0" encoding="UTF-8" standalone="no"?>
<svg
   xmlns:dc="http://purl.org/dc/elements/1.1/"
   xmlns:cc="http://creativecommons.org/ns#"
   xmlns:rdf="http://www.w3.org/1999/02/22-rdf-syntax-ns#"
   xmlns:svg="http://www.w3.org/2000/svg"
   xmlns="http://www.w3.org/2000/svg"
   viewBox="0 0 20.006533 20.167868"
   height="20.167868"
   width="20.006533"
   xml:space="preserve"
   id="svg2"
   version="1.1"><metadata
     id="metadata8"><rdf:RDF><cc:Work
         rdf:about=""><dc:format>image/svg+xml</dc:format><dc:type
           rdf:resource="http://purl.org/dc/dcmitype/StillImage" /></cc:Work></rdf:RDF></metadata><defs
     id="defs6"><clipPath
       id="clipPath18"
       clipPathUnits="userSpaceOnUse"><path
         id="path16"
         d="M 0,15.126 H 15.005 V 0 H 0 Z" /></clipPath><clipPath
       id="clipPath30"
       clipPathUnits="userSpaceOnUse"><path
         id="path28"
         d="M 0,15.126 H 15.005 V 0 H 0 Z" /></clipPath></defs><g
     transform="matrix(1.3333333,0,0,-1.3333333,0,20.167867)"
     id="g10"><g
       id="g12"><g
         clip-path="url(#clipPath18)"
         id="g14"><g
           transform="translate(15.0185,7.5019)"
           id="g20"><path
             id="path22"
             style="fill:#4d5459;fill-opacity:1;fill-rule:nonzero;stroke:none"
             d="m 0,0 c 0,-4.142 -3.359,-7.502 -7.503,-7.502 -4.142,0 -7.502,3.36 -7.502,7.502 0,4.144 3.36,7.503 7.502,7.503 C -3.359,7.503 0,4.144 0,0" /></g></g></g><g
       id="g24"><g
         clip-path="url(#clipPath30)"
         id="g26"><g
           transform="translate(7.5625,10.1758)"
           id="g32"><path
             id="path34"
             style="fill:#ffffff;fill-opacity:1;fill-rule:nonzero;stroke:none"
             d="m 0,0 c -0.552,0 -0.995,0.444 -0.995,0.996 0,0.552 0.443,0.983 0.995,0.983 0.54,0 0.983,-0.431 0.983,-0.983 C 0.983,0.444 0.54,0 0,0 m 1.703,-6.536 c 0,-0.131 -0.024,-0.168 -0.168,-0.168 h -3.058 c -0.144,0 -0.168,0.037 -0.168,0.168 v 0.779 c 0,0.133 0.024,0.168 0.168,0.168 h 0.767 v 3.694 h -0.779 c -0.144,0 -0.168,0.037 -0.168,0.168 v 0.78 c 0,0.132 0.024,0.168 0.168,0.168 H 0.6 c 0.144,0 0.168,-0.036 0.168,-0.168 v -4.642 h 0.767 c 0.144,0 0.168,-0.035 0.168,-0.168 z" /></g></g></g></g></svg>